<svg id="Group_75" data-name="Group 75" xmlns="http://www.w3.org/2000/svg" width="34.565" height="34.828" viewBox="0 0 34.565 34.828">
  <path id="Path_26" data-name="Path 26" d="M248.752,721.667a3.148,3.148,0,0,1,1.672.97,2.7,2.7,0,0,1-.29,3.81.711.711,0,0,0-.281.635c.021.451.006.9.006,1.391.169.008.311.021.452.022q5.22,0,10.441,0a2.592,2.592,0,0,1,.737.09,1.356,1.356,0,0,1,.938,1.539,1.39,1.39,0,0,1-1.367,1.187c-.361.016-.723,0-1.134,0,.056.139.094.242.138.34q2.322,5.113,4.644,10.226a.368.368,0,0,0,.33.273.636.636,0,0,1,.531.9,21.587,21.587,0,0,1-1.077,2.077,1.852,1.852,0,0,1-1.686.848q-3.86.007-7.72,0a2.033,2.033,0,0,1-1.944-1.24c-.244-.5-.5-.988-.752-1.484-.292-.587-.105-.965.538-1.127a.362.362,0,0,0,.208-.182q2.391-5.249,4.771-10.5a.434.434,0,0,0,.014-.111h-8.061c0,.445,0,.873,0,1.3,0,.159,0,.318,0,.476-.017.365-.224.594-.521.586s-.5-.238-.511-.606,0-.726,0-1.088q0-.493,0-.986c0-.579.162-.739.752-.743q.969-.006,1.939-.006l9.251,0a.75.75,0,0,0,.366-.035c.116-.073.268-.227.256-.33a.587.587,0,0,0-.287-.345c-.092-.056-.243-.018-.367-.018H249.646c-.667,0-.821-.154-.822-.817,0-.53,0-1.059,0-1.6h-.963v1.545c0,.74-.134.876-.865.876H236.012c-.1,0-.2,0-.306,0-.234,0-.407.085-.423.338-.018.279.169.372.411.388.113.007.227,0,.34,0h10.849c.1,0,.2,0,.306,0,.5.015.671.188.672.686,0,1.122,0,2.245,0,3.367q0,7.839,0,15.678v.355h.963v-.445q0-6.972,0-13.944c0-.1,0-.2,0-.306a.54.54,0,0,1,.514-.567.508.508,0,0,1,.512.558c.012.827.01,1.655.01,2.483q0,5.952,0,11.9c0,.1.011.2.02.339h.382c1.032,0,2.063,0,3.095,0a1.693,1.693,0,0,1,1.845,1.838c0,.214,0,.429,0,.682.328.016.64.019.949.047a1.624,1.624,0,0,1,1.5,1.6c.011.419,0,.839,0,1.258,0,.518-.172.684-.7.684H239.717c-.521,0-.686-.168-.689-.694,0-.385-.006-.771,0-1.156a1.632,1.632,0,0,1,1.548-1.7c.289-.027.583,0,.9,0,0-.255,0-.456,0-.658a1.718,1.718,0,0,1,1.888-1.9c1.02,0,2.041,0,3.061,0h.381V731.336h-8.061c.053.132.093.247.143.356q2.3,5.067,4.6,10.134a.455.455,0,0,0,.4.335.653.653,0,0,1,.486.937,21.713,21.713,0,0,1-1.054,2.014,1.889,1.889,0,0,1-1.709.876q-3.877.006-7.754-.007a2.008,2.008,0,0,1-1.893-1.211c-.263-.526-.539-1.047-.8-1.577a.692.692,0,0,1,.538-1.063.561.561,0,0,0,.3-.3q1.887-4.137,3.758-8.28c.285-.628.574-1.255.86-1.883.045-.1.082-.2.14-.35-.415,0-.787.017-1.158,0a1.383,1.383,0,0,1-1.347-1.245,1.351,1.351,0,0,1,.967-1.488,2.835,2.835,0,0,1,.739-.08q5.221-.01,10.441-.008h.424c0-.592.005-1.154-.007-1.716a.359.359,0,0,0-.143-.212,2.739,2.739,0,0,1,1.168-4.851.45.45,0,0,0,.091-.044Zm-6.259,20.458-4.745-10.456L233,742.125Zm21.195,0-4.749-10.458-4.745,10.458Zm-9.53,10.8c0-.215,0-.372,0-.529-.011-.833-.145-.966-.972-.966h-9.693a1.1,1.1,0,0,0-.469.033c-.175.09-.407.24-.44.4a5.455,5.455,0,0,0-.021,1.061c.249,0,.474,0,.7,0,.26,0,.522,0,.78.028a.449.449,0,0,1,.421.455.462.462,0,0,1-.352.514,1.277,1.277,0,0,1-.368.043c-.794,0-1.588.022-2.381,0-1.259-.04-1.344.125-1.3,1.391a.253.253,0,0,0,.034.084h16.53c0-.223,0-.415,0-.607,0-.666-.2-.864-.873-.864H246.64c-.091,0-.182.006-.272,0a.525.525,0,0,1-.542-.5.509.509,0,0,1,.5-.535,2.892,2.892,0,0,1,.373-.013l5.271.006Zm-21.846-9.755a10.683,10.683,0,0,0,.738,1.35,1.066,1.066,0,0,0,.732.4q3.962.043,7.924,0a1.068,1.068,0,0,0,.735-.394,10.924,10.924,0,0,0,.75-1.354Zm32.062.014h-10.86c.229.445.429.862.656,1.264a.891.891,0,0,0,.806.482c2.638,0,5.277.014,7.915-.01a1.023,1.023,0,0,0,.719-.358A11.591,11.591,0,0,0,264.373,743.188Zm-16.049-17.1a1.7,1.7,0,1,0-1.682-1.7A1.747,1.747,0,0,0,248.325,726.093Z" transform="translate(-231.065 -721.667)" fill="#8CC540"/>
</svg>
