<svg xmlns="http://www.w3.org/2000/svg" width="72.682" height="72.68" viewBox="0 0 72.682 72.68"><defs><style>.a{fill:#252425;}</style></defs><g transform="translate(0 -0.008)"><path class="a" d="M67.926,34.359A1.776,1.776,0,0,0,69.7,32.585V29.391h1.207a1.776,1.776,0,0,0,1.774-1.774V23.5a1.776,1.776,0,0,0-1.774-1.774H69.7V19.91a2.489,2.489,0,0,0-1.258-2.16L37.922.423a3.217,3.217,0,0,0-3.161,0L14.269,12.056a1.065,1.065,0,0,0,1.051,1.852L35.812,2.275a1.077,1.077,0,0,1,1.059,0L67.392,19.6a.355.355,0,0,1,.18.309v1.815h-.764l-29.59-16.8a1.783,1.783,0,0,0-1.752,0l-29.59,16.8H5.11V19.91a.356.356,0,0,1,.18-.309L11,16.359A1.065,1.065,0,0,0,9.95,14.508L4.239,17.749a2.489,2.489,0,0,0-1.258,2.16v1.815H1.774A1.776,1.776,0,0,0,0,23.5v4.117a1.776,1.776,0,0,0,1.774,1.774H2.981v3.194a1.776,1.776,0,0,0,1.774,1.774H8.039V53.226a1.776,1.776,0,0,0-1.115,1.646v6.885H4.756a1.776,1.776,0,0,0-1.774,1.774v2.626H1.774A1.776,1.776,0,0,0,0,67.932v3.691a1.065,1.065,0,0,0,1.065,1.065H71.617a1.065,1.065,0,0,0,1.065-1.065V67.932a1.776,1.776,0,0,0-1.774-1.774H69.7V63.532a1.776,1.776,0,0,0-1.774-1.774H65.758V54.872a1.776,1.776,0,0,0-1.065-1.625V34.359Zm-.355-2.129H50.364a14.9,14.9,0,0,0,.715-2.839H67.571Zm-3.943,23v2.129H57.24V55.227Zm-7.453-1.98a1.776,1.776,0,0,0-1.065,1.625v2.484h-3.6V54.872a1.775,1.775,0,0,0-1.015-1.6V34.359h5.678Zm-13.181,4.11V55.227h6.388v2.129Zm-11.179,0V54.872a1.776,1.776,0,0,0-1.065-1.625V41.012a14.791,14.791,0,0,0,5.556,1.082,15.019,15.019,0,0,0,5.673-1.116V53.226a1.776,1.776,0,0,0-1.115,1.646v2.484H31.816Zm-8.517,0V55.227h6.388v2.129Zm-5.728,0V54.872a1.775,1.775,0,0,0-1.015-1.6V34.359h5.678V53.247a1.776,1.776,0,0,0-1.065,1.625v2.484Zm-8.517,0V55.227h6.388v2.129ZM28.622,53.1H24.364V36.08a14.841,14.841,0,0,0,4.259,3.865ZM48.368,35.987V53.1H44.109V39.9A14.806,14.806,0,0,0,48.368,35.987Zm22.184-8.725H51.243a14.923,14.923,0,0,0-.376-3.407H70.553ZM36.341,6.879,62.494,21.725H50.209c-.126-.32-.262-.637-.41-.95a1.065,1.065,0,1,0-1.923.914,12.7,12.7,0,1,1-2.426-3.468,1.065,1.065,0,1,0,1.516-1.495,14.913,14.913,0,0,0-23.517,2.994,15.124,15.124,0,0,0-.973,2H10.188ZM2.129,23.855H21.81a14.717,14.717,0,0,0-.378,3.407H2.129ZM5.11,29.391H21.6a15.174,15.174,0,0,0,.339,1.639q.163.612.374,1.2H5.11Zm9.316,4.968V53.1H10.168V34.359Zm56.126,36.2H2.129V68.287H70.553Zm-14.06-8.8a1.065,1.065,0,0,0,0,2.129H67.571v2.271H5.11V63.887H51.491a1.065,1.065,0,1,0,0-2.129H9.053V59.486H63.628v2.271ZM62.564,53.1H58.305V34.359h4.259Z"/><path class="a" d="M197.53,118.86a11.089,11.089,0,0,0-14.54,4.212,9.759,9.759,0,0,0,2.252,12.3,1.131,1.131,0,0,0,1.535-.071.991.991,0,0,0-.075-1.453,7.781,7.781,0,0,1-1.794-9.806,8.848,8.848,0,0,1,11.6-3.362,8.158,8.158,0,0,1,4.169,4.782,7.666,7.666,0,0,1-.633,6.181,8.838,8.838,0,0,1-9.853,4.021,1.1,1.1,0,0,0-1.337.718,1.023,1.023,0,0,0,.759,1.265c4.518,1.277,10.136-.87,12.349-5.037a9.612,9.612,0,0,0,.793-7.749,10.232,10.232,0,0,0-5.229-6Z" transform="translate(-156.15 -100.953)"/><path class="a" d="M236.371,155.331a1.585,1.585,0,0,1-1.172-.3.866.866,0,0,0-.947,1.45,3.157,3.157,0,0,0,1.3.537v.24a.866.866,0,0,0,1.732,0V156.9a2.638,2.638,0,0,0,1.656-2.01,2.335,2.335,0,0,0-1.587-2.643c-.218-.077-.415-.135-.588-.187-.475-.141-.648-.2-.808-.39a.519.519,0,0,1-.047-.391.693.693,0,0,1,.347-.482c.363-.185.785.149.832.187a.866.866,0,0,0,1.1-1.336,2.912,2.912,0,0,0-.907-.507v-.2a.866.866,0,0,0-1.732,0v.273a2.5,2.5,0,0,0-1.34,1.718,2.206,2.206,0,0,0,.418,1.849,3.012,3.012,0,0,0,1.64.937c.161.048.328.1.505.16a.605.605,0,0,1,.455.723A.864.864,0,0,1,236.371,155.331Z" transform="translate(-200.076 -126.25)"/></g></svg>