<svg xmlns="http://www.w3.org/2000/svg" width="60.612" height="73.883" viewBox="0 0 60.612 73.883"><defs><style>.a{fill:#252425;}</style></defs><path class="a" d="M31.518,743.442c-1.42-.488-2.863-.92-4.258-1.472C18.226,738.4,11.028,732.627,6.2,724.108a30.964,30.964,0,0,1-4.117-15.48q-.006-10.713,0-21.426a4.306,4.306,0,0,1,2.54-4.1q12.812-6.495,25.626-12.987a4.373,4.373,0,0,1,4.2-.031q12.866,6.533,25.74,13.053a4.32,4.32,0,0,1,2.5,4.136c0,7.022-.013,14.043,0,21.065a31.737,31.737,0,0,1-5.705,18.348,41.323,41.323,0,0,1-23.429,16.607,1.943,1.943,0,0,0-.307.151Zm-26.556-45h.006q0,4.905,0,9.811a29.236,29.236,0,0,0,5.3,16.911,38.412,38.412,0,0,0,21.059,15.12,3.186,3.186,0,0,0,1.956.064,39.237,39.237,0,0,0,17.839-10.943c5.5-5.93,8.633-12.878,8.676-21.059.037-6.949,0-13.9.012-20.848a1.9,1.9,0,0,0-1.136-1.894q-12.7-6.409-25.37-12.857a1.842,1.842,0,0,0-1.834,0q-12.639,6.431-25.3,12.82a1.973,1.973,0,0,0-1.221,1.987C4.977,691.182,4.961,694.813,4.961,698.444Z" transform="translate(-2.079 -669.559)"/><path class="a" d="M31.984,725.253c0-3.464.013-6.927-.009-10.39a1.657,1.657,0,0,1,1.008-1.661c1.784-.887,3.55-1.808,5.329-2.7a1.474,1.474,0,1,1,1.3,2.612c-1.408.727-2.817,1.45-4.24,2.146a.788.788,0,0,0-.506.829c.013,6.157-.053,12.315.027,18.47A24.216,24.216,0,0,0,41.236,750.4a32.837,32.837,0,0,0,14.718,9.746,1.626,1.626,0,0,0,.966.067c8.074-2.792,14.487-7.628,18.572-15.266a22.878,22.878,0,0,0,2.666-10.872c.018-5.964,0-11.929.011-17.893a.9.9,0,0,0-.545-.952q-10.353-5.218-20.7-10.456a1.082,1.082,0,0,0-.839.006c-1.555.751-3.083,1.559-4.634,2.321a1.419,1.419,0,0,1-1.818-.367,1.39,1.39,0,0,1-.012-1.793,2.011,2.011,0,0,1,.619-.479c1.794-.922,3.6-1.821,5.392-2.744a1.829,1.829,0,0,1,1.786.013q11.3,5.739,22.6,11.463a1.725,1.725,0,0,1,1.029,1.725c-.016,6.47.012,12.939-.008,19.409a26.777,26.777,0,0,1-6.363,17.148,35.615,35.615,0,0,1-17.465,11.686,2.361,2.361,0,0,1-1.326.026A35.521,35.521,0,0,1,37.513,750.4a26.54,26.54,0,0,1-5.537-16.637C32.018,730.929,31.984,728.091,31.984,725.253Z" transform="translate(-26.21 -695.336)"/><path class="a" d="M86.786,772a17.321,17.321,0,1,1-17.332,17.221A17.289,17.289,0,0,1,86.786,772Zm.017,2.9A14.422,14.422,0,1,0,101.2,789.529,14.469,14.469,0,0,0,86.8,774.9Z" transform="translate(-56.464 -752.251)"/><path class="a" d="M93.347,734.577a1.4,1.4,0,0,1-1.433-1.455,1.439,1.439,0,0,1,2.877.011A1.4,1.4,0,0,1,93.347,734.577Z" transform="translate(-74.594 -719.718)"/><path class="a" d="M112.229,814.764c0-.822,0-1.54,0-2.258a2.921,2.921,0,0,1,3.1-3.118c1.105,0,2.211-.005,3.316.008a2.891,2.891,0,0,1,3.023,2.974c.026.764,0,1.529,0,2.4.783,0,1.495,0,2.207,0a2.931,2.931,0,0,1,3.173,3.192c0,1.081.007,2.163.005,3.244a2.857,2.857,0,0,1-2.856,2.982c-.811.033-1.625.006-2.523.006,0,.761,0,1.45,0,2.139a2.978,2.978,0,0,1-3.249,3.277c-1.033-.005-2.067,0-3.1-.006a2.927,2.927,0,0,1-3.092-2.995c-.025-.765,0-1.532,0-2.421-.753,0-1.44,0-2.128,0a2.917,2.917,0,0,1-3.253-3.239c0-1.057-.006-2.115-.005-3.172a2.9,2.9,0,0,1,2.919-3.009C110.557,814.745,111.346,814.764,112.229,814.764Zm2.953-2.443c0,1.21,0,2.34,0,3.469-.006,1.4-.5,1.9-1.921,1.9-1.149,0-2.3,0-3.485,0v3.568h2.76c2.413,0,2.647.232,2.647,2.631v2.767h3.546c0-1.177,0-2.3,0-3.431,0-1.434.528-1.963,1.947-1.966,1.146,0,2.292,0,3.451,0v-3.568c-1.173,0-2.3,0-3.426,0-1.512,0-1.97-.464-1.972-1.988,0-1.121,0-2.241,0-3.386Z" transform="translate(-86.651 -782.427)"/></svg>