<svg xmlns="http://www.w3.org/2000/svg" width="30" height="30" viewBox="0 0 30 30"><defs><style>.a{fill:#fff;stroke:#fff;opacity:0;}.b{fill:#fff;}.c{stroke:none;}.d{fill:none;}</style></defs><g transform="translate(16793 -4457)"><g class="a" transform="translate(-16793 4457)"><rect class="c" width="30" height="30"/><rect class="d" x="0.5" y="0.5" width="29" height="29"/></g><path class="b" d="M398.666,98.312c2.961,0,3.312.011,4.481.064a6.136,6.136,0,0,1,2.06.382,3.675,3.675,0,0,1,2.1,2.1,6.138,6.138,0,0,1,.382,2.06c.053,1.169.064,1.52.064,4.481s-.011,3.312-.064,4.481a6.13,6.13,0,0,1-.382,2.059,3.674,3.674,0,0,1-2.1,2.1,6.126,6.126,0,0,1-2.06.382c-1.169.053-1.52.065-4.481.065s-3.311-.012-4.481-.065a6.118,6.118,0,0,1-2.059-.382,3.673,3.673,0,0,1-2.1-2.1,6.145,6.145,0,0,1-.382-2.059c-.054-1.17-.064-1.52-.064-4.481s.011-3.312.064-4.481a6.153,6.153,0,0,1,.382-2.06,3.674,3.674,0,0,1,2.1-2.1,6.129,6.129,0,0,1,2.059-.382c1.17-.053,1.52-.064,4.481-.064m0-2c-3.011,0-3.389.013-4.572.067a8.144,8.144,0,0,0-2.692.515,5.67,5.67,0,0,0-3.243,3.243,8.135,8.135,0,0,0-.515,2.692c-.054,1.183-.067,1.56-.067,4.573s.013,3.389.067,4.572a8.139,8.139,0,0,0,.515,2.692,5.67,5.67,0,0,0,3.243,3.243,8.159,8.159,0,0,0,2.692.515c1.183.054,1.56.067,4.572.067s3.389-.013,4.573-.067a8.162,8.162,0,0,0,2.692-.515,5.67,5.67,0,0,0,3.243-3.243,8.153,8.153,0,0,0,.515-2.692c.054-1.183.067-1.56.067-4.572s-.013-3.389-.067-4.573a8.149,8.149,0,0,0-.515-2.692,5.67,5.67,0,0,0-3.243-3.243,8.148,8.148,0,0,0-2.692-.515c-1.183-.054-1.56-.067-4.573-.067" transform="translate(-17176.715 4365.293)"/><path class="b" d="M402.838,105.88a5.695,5.695,0,1,0,5.695,5.695,5.695,5.695,0,0,0-5.695-5.695m0,9.391a3.7,3.7,0,1,1,3.7-3.7,3.7,3.7,0,0,1-3.7,3.7" transform="translate(-17180.887 4361.122)"/><path class="b" d="M418.04,104.452a1.331,1.331,0,1,1-1.331-1.33,1.331,1.331,0,0,1,1.331,1.33" transform="translate(-17188.838 4362.325)"/></g></svg>