<?xml version="1.0" encoding="UTF-8"?>
<svg id="Layer_1" data-name="Layer 1" xmlns="http://www.w3.org/2000/svg" version="1.1" viewBox="0 0 1080 1080">
  <defs>
    <style>
      .cls-1 {
        fill: #8cc540;
      }

      .cls-1, .cls-2, .cls-3 {
        stroke-width: 0px;
      }

      .cls-2 {
        fill: #186cce;
      }

      .cls-3 {
        fill: #fff;
      }
    </style>
  </defs>
  <path class="cls-1" d="M1080,226.78v186.51c0,99.8-80.9,180.7-180.7,180.7h-12.43c.38-.36.76-.73,1.13-1.1,13.53-13.54,21.9-32.23,21.9-52.89,0-41.31-33.48-74.79-74.79-74.79h-220.32V180.7C614.79,80.9,533.89,0,434.09,0h419.13C978.47,0,1080,101.53,1080,226.78Z"/>
  <path class="cls-2" d="M1080,434.09v419.05c0,125.29-101.57,226.86-226.86,226.86h-186.35c-99.84,0-180.78-80.94-180.78-180.78v-12.35c.36.38.73.76,1.1,1.13,12.79,12.78,30.17,20.95,49.46,21.82,42.77,1.93,78.22-32.98,78.22-75.8v-219.15s.04-.08.08-.08h284.43c99.8,0,180.7-80.9,180.7-180.7Z"/>
  <path class="cls-1" d="M645.91,1080H226.78c-125.25,0-226.78-101.53-226.78-226.78v-186.51c0-99.8,80.9-180.7,180.7-180.7h12.43c-.38.36-.76.73-1.13,1.1-13.53,13.54-21.9,32.23-21.9,52.89,0,41.31,33.48,74.79,74.79,74.79h220.32v284.51c0,99.8,80.9,180.7,180.7,180.7Z"/>
  <path class="cls-2" d="M593.99,180.7v12.43c-.36-.38-.73-.76-1.1-1.13-13.54-13.53-32.23-21.9-52.89-21.9-41.31,0-74.79,33.48-74.79,74.79v220.32H180.7C80.9,465.21,0,546.11,0,645.91V226.78C0,101.53,101.53,0,226.78,0h186.51C513.09,0,593.99,80.9,593.99,180.7Z"/>
  <path class="cls-3" d="M614.79,180.78v284.35s-.04.08-.08.08h-149.42s-.08-.04-.08-.08v-219.15c0-42.82,35.45-77.73,78.22-75.8,19.29.87,36.67,9.05,49.46,21.82.37.37.74.75,1.1,1.13v-12.43C593.99,80.9,513.09,0,413.29,0h20.72C533.85,0,614.79,80.94,614.79,180.78Z"/>
  <path class="cls-3" d="M1080,413.29v20.8c0,99.8-80.9,180.7-180.7,180.7h-284.51v-149.58h220.32c41.31,0,74.79,33.48,74.79,74.79,0,20.66-8.37,39.35-21.9,52.89-.37.37-.75.74-1.13,1.1h12.43c99.8,0,180.7-80.9,180.7-180.7Z"/>
  <path class="cls-3" d="M465.21,465.21v149.58h-220.32c-41.31,0-74.79-33.48-74.79-74.79,0-20.66,8.37-39.35,21.9-52.89.37-.37.75-.74,1.13-1.1h-12.43C80.9,486.01,0,566.91,0,666.71v-20.8c0-99.8,80.9-180.7,180.7-180.7h284.51Z"/>
  <path class="cls-3" d="M666.71,1080h-20.8c-99.8,0-180.7-80.9-180.7-180.7v-284.51h149.58v220.32c0,41.31-33.48,74.79-74.79,74.79-20.66,0-39.35-8.37-52.89-21.9-.37-.37-.74-.75-1.1-1.13v12.43c0,99.8,80.9,180.7,180.7,180.7Z"/>
  <rect class="cls-3" x="465.21" y="465.21" width="149.58" height="149.58"/>
</svg>