<svg xmlns="http://www.w3.org/2000/svg" width="30" height="30" viewBox="0 0 30 30"><defs><style>.a{fill:#fff;stroke:#fff;opacity:0;}.b{fill:#fff;}.c{stroke:none;}.d{fill:none;}</style></defs><g transform="translate(16687 -4457)"><g class="a" transform="translate(-16687 4457)"><rect class="c" width="30" height="30"/><rect class="d" x="0.5" y="0.5" width="29" height="29"/></g><g transform="translate(-16682.543 4462.736)"><rect class="b" width="4.186" height="13.523" transform="translate(0.402 6.761)"/><path class="b" d="M183.863,202.607a2.5,2.5,0,1,0-2.475-2.5A2.486,2.486,0,0,0,183.863,202.607Z" transform="translate(-181.388 -197.617)"/></g><path class="b" d="M198.283,215.711c0-1.9.875-3.034,2.551-3.034,1.539,0,2.278,1.087,2.278,3.034v7.1h4.166v-8.562c0-3.622-2.053-5.373-4.92-5.373a4.715,4.715,0,0,0-4.075,2.234v-1.822h-4.015v13.523h4.015Z" transform="translate(-16869.547 4260.21)"/></g></svg>