<svg xmlns="http://www.w3.org/2000/svg" width="74.169" height="74.17" viewBox="0 0 74.169 74.17"><defs><style>.a{fill:#8CC540;}</style></defs><g transform="translate(0 0)"><g transform="translate(0 43.266)"><path class="a" d="M60.263,35.633H7.726A7.737,7.737,0,0,1,0,27.907v-3.09A10.828,10.828,0,0,1,10.816,14H42.8a1.545,1.545,0,1,1,0,3.09H10.816A7.737,7.737,0,0,0,3.09,24.816v3.09a4.641,4.641,0,0,0,4.636,4.636H60.263A4.641,4.641,0,0,0,64.9,27.907v-3.09a7.622,7.622,0,0,0-2.03-5.195,1.546,1.546,0,1,1,2.271-2.1,10.728,10.728,0,0,1,2.849,7.293v3.09a7.737,7.737,0,0,1-7.726,7.726Z" transform="translate(0 -14)"/></g><g transform="translate(0 55.627)"><path class="a" d="M6.181,36.542A6.187,6.187,0,0,1,0,30.362V19.545a1.545,1.545,0,0,1,3.09,0V30.362a3.09,3.09,0,1,0,6.181,0V25.726a1.545,1.545,0,0,1,3.09,0v4.636A6.187,6.187,0,0,1,6.181,36.542Z" transform="translate(0 -18)"/></g><g transform="translate(55.627 55.627)"><path class="a" d="M24.181,36.542A6.187,6.187,0,0,1,18,30.362V25.726a1.545,1.545,0,0,1,3.09,0v4.636a3.09,3.09,0,1,0,6.181,0V19.545a1.545,1.545,0,0,1,3.09,0V30.362A6.187,6.187,0,0,1,24.181,36.542Z" transform="translate(-18 -18)"/></g><g transform="translate(6.182 24.724)"><path class="a" d="M3.544,29.633a1.5,1.5,0,0,1-.593-.121,1.545,1.545,0,0,1-.831-2.021L8.269,12.75A7.7,7.7,0,0,1,15.38,8H25.857a1.545,1.545,0,0,1,0,3.09H15.38a4.672,4.672,0,0,0-4.259,2.852L4.972,28.684a1.555,1.555,0,0,1-1.428.949Z" transform="translate(-2 -8)"/></g><g transform="translate(9.271 52.537)"><path class="a" d="M13.816,20.09H4.545a1.545,1.545,0,0,1,0-3.09h9.271a1.545,1.545,0,0,1,0,3.09Z" transform="translate(-3 -17)"/></g><g transform="translate(46.356 52.537)"><path class="a" d="M25.816,20.09H16.545a1.545,1.545,0,0,1,0-3.09h9.271a1.545,1.545,0,0,1,0,3.09Z" transform="translate(-15 -17)"/></g><g transform="translate(37.085 0)"><path class="a" d="M30.542,43.266a1.5,1.5,0,0,1-.6-.124C29.207,42.836,12,35.4,12,20.2V7.285A1.55,1.55,0,0,1,13.051,5.82l17-5.739a1.547,1.547,0,0,1,.989,0l17,5.739a1.55,1.55,0,0,1,1.051,1.465V20.2c0,15.2-17.207,22.637-17.943,22.946A1.55,1.55,0,0,1,30.542,43.266ZM15.09,8.394V20.2c0,11.7,12.532,18.413,15.452,19.822C33.46,38.609,45.994,31.869,45.994,20.2V8.394L30.542,3.177Z" transform="translate(-12 0)"/></g><g transform="translate(46.355 13.906)"><path class="a" d="M22.726,18.407a.809.809,0,0,1-.087,0,1.55,1.55,0,0,1-1.122-.578L15.337,10.1a1.546,1.546,0,0,1,2.414-1.931l5.1,6.379,9.6-9.6a1.545,1.545,0,0,1,2.185,2.185L23.817,17.953A1.526,1.526,0,0,1,22.726,18.407Z" transform="translate(-15 -4.5)"/></g></g></svg>