<svg xmlns="http://www.w3.org/2000/svg" width="34.828" height="34.828" viewBox="0 0 34.828 34.828">
  <g id="protection" transform="translate(0 0)">
    <g id="Group_10822" data-name="Group 10822" transform="translate(0 20.316)">
      <path id="Path_19283" data-name="Path 19283" d="M28.3,24.158H3.628A3.633,3.633,0,0,1,0,20.53V19.079A5.085,5.085,0,0,1,5.079,14H20.1a.726.726,0,1,1,0,1.451H5.079a3.633,3.633,0,0,0-3.628,3.628V20.53a2.179,2.179,0,0,0,2.177,2.177H28.3a2.179,2.179,0,0,0,2.177-2.177V19.079a3.579,3.579,0,0,0-.953-2.439.726.726,0,1,1,1.067-.985,5.038,5.038,0,0,1,1.338,3.425V20.53A3.633,3.633,0,0,1,28.3,24.158Z" transform="translate(0 -14)" fill="#8CC540"/>
    </g>
    <g id="Group_10823" data-name="Group 10823" transform="translate(0 26.121)">
      <path id="Path_19284" data-name="Path 19284" d="M2.9,26.707A2.905,2.905,0,0,1,0,23.8V18.726a.726.726,0,1,1,1.451,0V23.8a1.451,1.451,0,1,0,2.9,0V21.628a.726.726,0,0,1,1.451,0V23.8A2.905,2.905,0,0,1,2.9,26.707Z" transform="translate(0 -18)" fill="#8CC540"/>
    </g>
    <g id="Group_10824" data-name="Group 10824" transform="translate(26.121 26.121)">
      <path id="Path_19285" data-name="Path 19285" d="M20.9,26.707A2.905,2.905,0,0,1,18,23.8V21.628a.726.726,0,0,1,1.451,0V23.8a1.451,1.451,0,1,0,2.9,0V18.726a.726.726,0,1,1,1.451,0V23.8A2.905,2.905,0,0,1,20.9,26.707Z" transform="translate(-18 -18)" fill="#8CC540"/>
    </g>
    <g id="Group_10825" data-name="Group 10825" transform="translate(2.903 11.609)">
      <path id="Path_19286" data-name="Path 19286" d="M2.725,18.158a.7.7,0,0,1-.279-.057.726.726,0,0,1-.39-.949L4.944,10.23A3.617,3.617,0,0,1,8.283,8H13.2a.726.726,0,1,1,0,1.451H8.283a2.194,2.194,0,0,0-2,1.339L3.4,17.713a.73.73,0,0,1-.67.446Z" transform="translate(-2 -8)" fill="#8CC540"/>
    </g>
    <g id="Group_10826" data-name="Group 10826" transform="translate(4.354 24.67)">
      <path id="Path_19287" data-name="Path 19287" d="M8.079,18.451H3.726a.726.726,0,0,1,0-1.451H8.079a.726.726,0,0,1,0,1.451Z" transform="translate(-3 -17)" fill="#8CC540"/>
    </g>
    <g id="Group_10827" data-name="Group 10827" transform="translate(21.768 24.67)">
      <path id="Path_19288" data-name="Path 19288" d="M20.079,18.451H15.726a.726.726,0,1,1,0-1.451h4.354a.726.726,0,0,1,0,1.451Z" transform="translate(-15 -17)" fill="#8CC540"/>
    </g>
    <g id="Group_10828" data-name="Group 10828" transform="translate(17.414 0)">
      <path id="Path_19289" data-name="Path 19289" d="M20.707,20.316a.7.7,0,0,1-.282-.058C20.08,20.115,12,16.622,12,9.485V3.421a.728.728,0,0,1,.493-.688L20.475.038a.727.727,0,0,1,.464,0l7.981,2.695a.728.728,0,0,1,.493.688V9.485c0,7.137-8.08,10.63-8.425,10.775A.728.728,0,0,1,20.707,20.316ZM13.451,3.941V9.485c0,5.493,5.884,8.646,7.256,9.308,1.37-.663,7.256-3.828,7.256-9.308V3.941l-7.256-2.45Z" transform="translate(-12 0)" fill="#8CC540"/>
    </g>
    <g id="Group_10829" data-name="Group 10829" transform="translate(21.767 6.53)">
      <path id="Path_19290" data-name="Path 19290" d="M18.628,11.03h-.041a.728.728,0,0,1-.527-.271l-2.9-3.628a.726.726,0,0,1,1.133-.907l2.4,3,4.506-4.506a.725.725,0,0,1,1.026,1.026L19.14,10.817A.717.717,0,0,1,18.628,11.03Z" transform="translate(-15 -4.5)" fill="#8CC540"/>
    </g>
  </g>
</svg>
