<svg xmlns="http://www.w3.org/2000/svg" width="73.325" height="73.883" viewBox="0 0 73.325 73.883"><defs><style>.a{fill:#252425;}</style></defs><path class="a" d="M268.585,721.667a6.68,6.68,0,0,1,3.547,2.057,5.723,5.723,0,0,1-.614,8.082,1.507,1.507,0,0,0-.6,1.347c.044.956.012,1.915.012,2.95.358.018.659.046.96.046q11.074,0,22.149.01a5.5,5.5,0,0,1,1.562.192,2.877,2.877,0,0,1,1.99,3.264,2.948,2.948,0,0,1-2.9,2.517c-.766.034-1.534.006-2.407.006.12.3.2.512.294.722q4.926,10.846,9.851,21.692a.781.781,0,0,0,.7.579,1.348,1.348,0,0,1,1.127,1.916,45.816,45.816,0,0,1-2.285,4.407,3.929,3.929,0,0,1-3.577,1.8q-8.189.015-16.377,0a4.314,4.314,0,0,1-4.124-2.63c-.518-1.056-1.07-2.1-1.6-3.149-.62-1.245-.223-2.047,1.141-2.391a.767.767,0,0,0,.44-.385q5.073-11.135,10.12-22.281a.92.92,0,0,0,.03-.236h-17.1c0,.945,0,1.853,0,2.76,0,.337.01.674-.005,1.01-.036.773-.474,1.259-1.106,1.243s-1.066-.5-1.083-1.286,0-1.539,0-2.309q0-1.046.005-2.092c0-1.228.345-1.568,1.6-1.577q2.056-.013,4.112-.013,9.812,0,19.624.009a1.59,1.59,0,0,0,.776-.074c.246-.154.568-.483.544-.7a1.246,1.246,0,0,0-.609-.733c-.2-.119-.515-.038-.78-.038h-23.52c-1.415,0-1.742-.327-1.743-1.734,0-1.124,0-2.247,0-3.4H266.7v3.278c0,1.57-.283,1.858-1.836,1.858h-23.3c-.217,0-.433,0-.649,0-.5-.005-.864.18-.9.716-.038.592.359.79.872.823.239.016.481.008.721.008h23.014c.217,0,.433,0,.649,0,1.058.032,1.424.4,1.426,1.455.005,2.381,0,4.762,0,7.142q0,16.63,0,33.259v.753h2.042V781.6q0-14.79,0-29.58c0-.217-.009-.434,0-.649a1.145,1.145,0,0,1,1.09-1.2,1.078,1.078,0,0,1,1.086,1.184c.026,1.755.02,3.511.021,5.266q0,12.625,0,25.251c0,.211.024.422.043.72h.81c2.188,0,4.377-.005,6.565,0a3.591,3.591,0,0,1,3.914,3.9c0,.455,0,.91,0,1.448.7.033,1.357.04,2.014.1a3.446,3.446,0,0,1,3.191,3.391c.024.889.005,1.78,0,2.669-.006,1.1-.365,1.451-1.482,1.452H259.664q-5.122,0-10.245,0c-1.106,0-1.456-.356-1.462-1.471,0-.817-.014-1.635-.005-2.453a3.462,3.462,0,0,1,3.283-3.6c.613-.057,1.236-.009,1.919-.009,0-.541,0-.968,0-1.395,0-2.586,1.438-4.035,4.005-4.037,2.164,0,4.329,0,6.493.007h.808v-40.41h-17.1c.112.281.2.523.3.756q4.879,10.749,9.757,21.5a.965.965,0,0,0,.845.711,1.385,1.385,0,0,1,1.031,1.988,46.027,46.027,0,0,1-2.237,4.272,4.007,4.007,0,0,1-3.625,1.859q-8.224.012-16.449-.015a4.26,4.26,0,0,1-4.016-2.569c-.558-1.117-1.144-2.22-1.687-3.344a1.468,1.468,0,0,1,1.141-2.255,1.189,1.189,0,0,0,.626-.646q4-8.775,7.972-17.565c.6-1.333,1.218-2.662,1.824-3.994.1-.212.174-.433.3-.742-.88,0-1.67.036-2.456-.008a2.934,2.934,0,0,1-2.857-2.641,2.865,2.865,0,0,1,2.051-3.157,6.008,6.008,0,0,1,1.568-.169q11.075-.021,22.149-.016h.9c0-1.255.011-2.448-.014-3.64a.761.761,0,0,0-.3-.45,5.811,5.811,0,0,1,2.478-10.29.952.952,0,0,0,.193-.094Zm-13.277,43.4-10.065-22.181-10.068,22.181Zm44.961.007-10.075-22.185-10.065,22.185Zm-20.216,22.911c0-.456,0-.789,0-1.123-.023-1.766-.308-2.049-2.063-2.049q-10.281,0-20.562,0a2.334,2.334,0,0,0-.995.069c-.372.191-.864.51-.934.85a11.572,11.572,0,0,0-.043,2.251c.528,0,1.006-.007,1.483,0,.552.01,1.108,0,1.655.059a.953.953,0,0,1,.892.965.981.981,0,0,1-.747,1.091,2.709,2.709,0,0,1-.78.092c-1.683.008-3.368.047-5.05-.006-2.671-.085-2.851.265-2.755,2.952a.537.537,0,0,0,.071.177h35.067c0-.473,0-.88,0-1.287,0-1.413-.42-1.832-1.852-1.832H264.1c-.192,0-.386.012-.577,0a1.113,1.113,0,0,1-1.149-1.06A1.08,1.08,0,0,1,263.437,788a6.134,6.134,0,0,1,.792-.027q5.591,0,11.183.012C276.923,787.986,278.433,787.985,280.052,787.985Zm-46.344-20.694a22.648,22.648,0,0,0,1.565,2.864,2.261,2.261,0,0,0,1.554.842q8.4.091,16.809,0a2.265,2.265,0,0,0,1.559-.835,23.159,23.159,0,0,0,1.591-2.872Zm68.015.029H278.685c.486.945.91,1.829,1.391,2.681a1.891,1.891,0,0,0,1.71,1.021c5.6.01,11.194.03,16.791-.021a2.171,2.171,0,0,0,1.524-.759A24.566,24.566,0,0,0,301.723,767.321Zm-34.045-36.264a3.6,3.6,0,1,0-3.569-3.6A3.707,3.707,0,0,0,267.678,731.056Z" transform="translate(-231.065 -721.667)"/></svg>