<svg id="Group_12055" data-name="Group 12055" xmlns="http://www.w3.org/2000/svg" width="28.572" height="34.828" viewBox="0 0 28.572 34.828">
  <path id="Path_19" data-name="Path 19" d="M15.956,704.387c-.67-.23-1.349-.434-2.007-.694a19.041,19.041,0,0,1-9.929-8.42,14.6,14.6,0,0,1-1.941-7.3q0-5.05,0-10.1a2.03,2.03,0,0,1,1.2-1.934q6.04-3.062,12.08-6.122a2.062,2.062,0,0,1,1.982-.015q6.065,3.08,12.134,6.153a2.036,2.036,0,0,1,1.176,1.95c0,3.31-.006,6.62,0,9.93a14.961,14.961,0,0,1-2.689,8.649,19.48,19.48,0,0,1-11.045,7.828.912.912,0,0,0-.145.071ZM3.438,683.175h0q0,2.312,0,4.625a13.782,13.782,0,0,0,2.5,7.972,18.107,18.107,0,0,0,9.927,7.128,1.5,1.5,0,0,0,.922.03,18.5,18.5,0,0,0,8.409-5.158,14.33,14.33,0,0,0,4.09-9.927c.017-3.276,0-6.552.006-9.828a.893.893,0,0,0-.535-.893Q22.773,674.1,16.8,671.063a.869.869,0,0,0-.864,0Q9.976,674.092,4.008,677.1a.93.93,0,0,0-.575.937C3.445,679.752,3.438,681.464,3.438,683.175Z" transform="translate(-2.079 -669.559)" fill="#a5a5a5"/>
  <path id="Path_20" data-name="Path 20" d="M31.978,712.693c0-1.633.006-3.265,0-4.9a.781.781,0,0,1,.475-.783c.841-.418,1.674-.852,2.512-1.275a.695.695,0,1,1,.611,1.231c-.664.343-1.328.684-2,1.012a.372.372,0,0,0-.238.391c.006,2.9-.025,5.805.013,8.707a11.415,11.415,0,0,0,2.992,7.47,15.479,15.479,0,0,0,6.938,4.594.767.767,0,0,0,.456.031,15.025,15.025,0,0,0,8.755-7.2,10.784,10.784,0,0,0,1.257-5.125c.009-2.812,0-5.623.005-8.435a.422.422,0,0,0-.257-.449q-4.88-2.46-9.756-4.929a.51.51,0,0,0-.4,0c-.733.354-1.453.735-2.184,1.094a.669.669,0,0,1-.857-.173.655.655,0,0,1-.006-.845.948.948,0,0,1,.292-.226c.846-.435,1.7-.858,2.542-1.293a.862.862,0,0,1,.842.006q5.326,2.705,10.655,5.4a.813.813,0,0,1,.485.813c-.007,3.05.006,6.1,0,9.149a12.623,12.623,0,0,1-3,8.083,16.789,16.789,0,0,1-8.233,5.509,1.112,1.112,0,0,1-.625.012,16.744,16.744,0,0,1-8.664-6.027,12.511,12.511,0,0,1-2.61-7.842C31.995,715.369,31.978,714.031,31.978,712.693Z" transform="translate(-29.257 -698.591)" fill="#a5a5a5"/>
  <path id="Path_21" data-name="Path 21" d="M77.624,772a8.165,8.165,0,1,1-8.17,8.118A8.15,8.15,0,0,1,77.624,772Zm.008,1.366a6.8,6.8,0,1,0,6.785,6.9A6.821,6.821,0,0,0,77.632,773.368Z" transform="translate(-63.331 -762.691)" fill="#a5a5a5"/>
  <path id="Path_22" data-name="Path 22" d="M92.59,733.055a.658.658,0,0,1-.676-.686.678.678,0,0,1,1.356.005A.662.662,0,0,1,92.59,733.055Z" transform="translate(-83.75 -726.051)" fill="#a5a5a5"/>
  <path id="Path_23" data-name="Path 23" d="M109.386,811.921c0-.388,0-.726,0-1.065a1.377,1.377,0,0,1,1.462-1.47c.521,0,1.042,0,1.563,0a1.363,1.363,0,0,1,1.425,1.4c.012.36,0,.721,0,1.131.369,0,.7,0,1.04,0a1.381,1.381,0,0,1,1.5,1.5c0,.51,0,1.019,0,1.529a1.347,1.347,0,0,1-1.346,1.406c-.382.016-.766,0-1.189,0,0,.359,0,.684,0,1.008a1.4,1.4,0,0,1-1.532,1.545c-.487,0-.974,0-1.461,0a1.38,1.38,0,0,1-1.458-1.412c-.012-.361,0-.722,0-1.141-.355,0-.679,0-1,0a1.375,1.375,0,0,1-1.533-1.527c0-.5,0-1,0-1.5a1.369,1.369,0,0,1,1.376-1.418C108.6,811.912,108.97,811.921,109.386,811.921Zm1.392-1.152c0,.571,0,1.1,0,1.635,0,.662-.238.895-.906.9-.542,0-1.084,0-1.643,0v1.682h1.3c1.137,0,1.248.11,1.248,1.24v1.3h1.671c0-.555,0-1.086,0-1.617,0-.676.249-.925.918-.927.54,0,1.08,0,1.627,0V813.3H113.38c-.713,0-.929-.219-.93-.937,0-.528,0-1.057,0-1.6Z" transform="translate(-97.329 -796.677)" fill="#a5a5a5"/>
</svg>
