<svg xmlns="http://www.w3.org/2000/svg" width="59.106" height="73.883" viewBox="0 0 59.106 73.883"><defs><style>.a{fill:#252425;}</style></defs><g transform="translate(0 0)"><path class="a" d="M58.367,12.437,30.046.1a1.231,1.231,0,0,0-.985,0L.739,12.437A1.231,1.231,0,0,0,0,13.566V43.081A20.022,20.022,0,0,0,8.339,59.3L27.918,73.353a2.8,2.8,0,0,0,3.278,0L50.774,59.3a20.017,20.017,0,0,0,8.331-16.216V13.571A1.231,1.231,0,0,0,58.367,12.437ZM56.643,43.081A17.556,17.556,0,0,1,49.331,57.3L29.752,71.353a.347.347,0,0,1-.406,0L9.767,57.3a17.556,17.556,0,0,1-7.3-14.217v-28.7l27.09-11.8,27.09,11.8Z" transform="translate(0 0)"/><path class="a" d="M28.135,4.465,4.739,14.659A1.231,1.231,0,0,0,4,15.788V42.071a15.084,15.084,0,0,0,6.286,12.216L27.91,66.943a1.232,1.232,0,0,0,1.436,0l17.63-12.655a15.084,15.084,0,0,0,6.28-12.216V15.788a1.231,1.231,0,0,0-.739-1.129L29.12,4.465A1.231,1.231,0,0,0,28.135,4.465ZM50.792,16.6V42.076A12.619,12.619,0,0,1,45.533,52.3L28.627,64.426,11.722,52.288A12.619,12.619,0,0,1,6.463,42.071V16.6L28.627,6.938Z" transform="translate(0.925 1.01)"/><path class="a" d="M26.781,26C18.349,26,12,35.5,12,41.667a3.984,3.984,0,0,0,1.282,3.367c1.478,1.155,3.651.606,6.4-.09A28.707,28.707,0,0,1,26.781,43.8a28.705,28.705,0,0,1,7.1,1.143,18.472,18.472,0,0,0,4.177.759,3.472,3.472,0,0,0,2.216-.669,3.983,3.983,0,0,0,1.286-3.367C41.557,35.5,35.212,26,26.781,26ZM38.762,43.089c-.536.416-2.524-.087-4.28-.532a31.042,31.042,0,0,0-7.7-1.219,31.042,31.042,0,0,0-7.7,1.219c-1.756.445-3.746.948-4.28.532a2.07,2.07,0,0,1-.332-1.422c0-5.094,5.635-13.2,12.314-13.2s12.314,8.11,12.314,13.2A2.07,2.07,0,0,1,38.762,43.089Z" transform="translate(2.772 6.016)"/><path class="a" d="M17.435,26.168a4.58,4.58,0,0,0,2.486.77,4.168,4.168,0,0,0,1.039-.132c2.963-.751,4.706-4.536,3.969-8.62a8.149,8.149,0,0,0-3.266-5.418,4.406,4.406,0,0,0-3.527-.639c-2.961.752-4.705,4.538-3.967,8.62A8.149,8.149,0,0,0,17.435,26.168Zm1.309-11.652a1.736,1.736,0,0,1,.427-.053,2.134,2.134,0,0,1,1.159.377A5.682,5.682,0,0,1,22.5,18.628c.493,2.719-.493,5.371-2.15,5.787a1.97,1.97,0,0,1-1.586-.323A5.683,5.683,0,0,1,16.593,20.3C16.1,17.589,17.087,14.936,18.744,14.515Z" transform="translate(3.239 2.778)"/><path class="a" d="M14.656,31.664a5.352,5.352,0,0,0,2.48-6.8A5.439,5.439,0,0,0,14.262,21.7a4.262,4.262,0,0,0-3.4-.027,5.349,5.349,0,0,0-2.489,6.795,5.431,5.431,0,0,0,2.875,3.162A4.392,4.392,0,0,0,13,32,4.186,4.186,0,0,0,14.656,31.664Zm-2.422-2.289A2.969,2.969,0,0,1,10.7,27.629a2.917,2.917,0,0,1,1.138-3.688,1.712,1.712,0,0,1,.68-.142,1.949,1.949,0,0,1,.771.166,2.972,2.972,0,0,1,1.537,1.747,2.92,2.92,0,0,1-1.138,3.694,1.814,1.814,0,0,1-1.457-.032Z" transform="translate(1.844 4.938)"/><path class="a" d="M32.668,24.868a5.352,5.352,0,0,0,2.481,6.8A4.177,4.177,0,0,0,36.8,32a4.392,4.392,0,0,0,1.746-.369,5.431,5.431,0,0,0,2.875-3.162,5.349,5.349,0,0,0-2.481-6.795,4.267,4.267,0,0,0-3.4.027A5.439,5.439,0,0,0,32.668,24.868Zm2.314.845a2.972,2.972,0,0,1,1.537-1.747,1.949,1.949,0,0,1,.771-.166,1.71,1.71,0,0,1,.68.142,2.917,2.917,0,0,1,1.138,3.688,2.968,2.968,0,0,1-1.537,1.746,1.806,1.806,0,0,1-1.449.026A2.918,2.918,0,0,1,34.981,25.713Z" transform="translate(7.464 4.938)"/><path class="a" d="M29.154,26.682a4.223,4.223,0,0,0,1.041.131,4.564,4.564,0,0,0,2.485-.77,8.147,8.147,0,0,0,3.267-5.418c.739-4.08-1.007-7.865-3.969-8.62a4.4,4.4,0,0,0-3.525.638,8.15,8.15,0,0,0-3.267,5.418C24.45,22.138,26.193,25.923,29.154,26.682ZM27.61,18.5a5.678,5.678,0,0,1,2.176-3.789,2.136,2.136,0,0,1,1.157-.377,1.758,1.758,0,0,1,.429.054c1.656.42,2.641,3.072,2.15,5.787a5.678,5.678,0,0,1-2.176,3.789,1.97,1.97,0,0,1-1.586.324c-1.657-.424-2.641-3.076-2.15-5.795Z" transform="translate(5.788 2.749)"/></g></svg>