<svg xmlns="http://www.w3.org/2000/svg" width="20.584" height="32.255" viewBox="0 0 20.584 32.255"><defs><style>.a{fill:#a5a5a5;}</style></defs><g transform="translate(0 0)"><path class="a" d="M-139,1265.737a.755.755,0,0,1-.419-.775c.008-.92,0-1.84.005-2.76a.378.378,0,0,0-.263-.42.736.736,0,0,1-.367-.539c-.023-2.168-.036-4.336,0-6.5a2.429,2.429,0,0,1,1.9-2.235c1.385-.42,2.769-.842,4.16-1.239.325-.093.4-.241.425-.569a1.937,1.937,0,0,0-.726-1.786,5.88,5.88,0,0,1-1.845-3.712.584.584,0,0,0-.27-.378,1.864,1.864,0,0,1-.579-2.941.8.8,0,0,0,.156-.471c.016-1.008-.007-2.017.018-3.025a5.05,5.05,0,0,1,4.84-4.872c1.8-.043,3.605-.028,5.407-.012a2.436,2.436,0,0,1,2.385,1.652.965.965,0,0,0,.27.344,3.115,3.115,0,0,1,1.172,2.437c.01,1.16,0,2.319.011,3.479a.858.858,0,0,0,.182.5,1.841,1.841,0,0,1-.586,2.88.5.5,0,0,0-.31.45,6.231,6.231,0,0,1-2.263,4.1.653.653,0,0,0-.279.607,6.079,6.079,0,0,1,0,.869c-.016.243.068.346.31.416,1.257.362,2.5.789,3.764,1.111a2.937,2.937,0,0,1,2.419,2.2v6.96c-.123.1-.233.259-.371.287-.274.056-.286.213-.284.432.008.915-.005,1.829.007,2.744a.76.76,0,0,1-.412.773h-.378a.989.989,0,0,1-.353-.9c.011-.857,0-1.715,0-2.572,0-.132-.013-.264-.02-.391h-2.077c0,1-.008,1.984,0,2.964a.992.992,0,0,1-.357.895h-.378a.771.771,0,0,1-.409-.781c.009-2.231,0-4.463.009-6.694a1.4,1.4,0,0,1,.111-.585c.385-.806.789-1.6,1.2-2.4a.589.589,0,0,1,.808-.33.591.591,0,0,1,.207.821,3.376,3.376,0,0,1-.27.54,5.94,5.94,0,0,0-.922,4.1c.01.1.025.189.037.282h2.707c0-1.945.01-3.86-.007-5.775a1.161,1.161,0,0,0-.69-1.133c-.716-.29-1.463-.5-2.192-.746-.929,2.9-2.8,4.7-5.806,4.874-3.447.2-5.617-1.632-6.723-4.829a.723.723,0,0,0-.109.015c-.531.156-1.063.31-1.593.47a1.451,1.451,0,0,0-1.185,1.609q0,2.571,0,5.143c0,.122.011.244.017.377h2.722c0-.842,0-1.66-.005-2.477a.8.8,0,0,0-.119-.314c-.341-.688-.7-1.369-1.02-2.065a.867.867,0,0,1-.064-.6.69.69,0,0,1,.448-.329c.279-.066.469.122.591.367.383.766.776,1.526,1.142,2.3a1.676,1.676,0,0,1,.161.685c.012,2.231,0,4.463.012,6.694a.779.779,0,0,1-.4.784h-.378a.984.984,0,0,1-.364-.889c.016-.729,0-1.459,0-2.188v-.777h-2.1c0,1.047-.005,2.064,0,3.081a.755.755,0,0,1-.419.773Zm3.343-24.518c.83.172.908.129,1.167-.64.06-.179.119-.358.179-.537.22-.664.275-.69.957-.726a20.678,20.678,0,0,0,7.22-1.225.544.544,0,0,1,.76.281.538.538,0,0,1-.317.742,10.092,10.092,0,0,1-1.124.439,22.167,22.167,0,0,1-5.85.855c-.442.016-.705.129-.775.591a2.59,2.59,0,0,1-.192.571,1.187,1.187,0,0,1-1.08.812c-.327.021-.657,0-.981.04a.691.691,0,0,0-.476,1.131,1,1,0,0,0,.543.293.63.63,0,0,1,.586.664c.005.138.022.276.033.415a5.263,5.263,0,0,0,6.337,4.644,5.235,5.235,0,0,0,4.142-4.829c.051-.7.074-.731.752-.919.3-.082.529-.263.519-.565a1.071,1.071,0,0,0-.262-.684,1,1,0,0,1-.348-.789c.01-1.235,0-2.47,0-3.706a2.124,2.124,0,0,0-.879-1.79,1.507,1.507,0,0,1-.464-.65,1.358,1.358,0,0,0-1.349-1.006c-1.765-.008-3.53-.026-5.294.009a3.888,3.888,0,0,0-3.79,3.45C-135.744,1239.123-135.658,1240.175-135.658,1241.218Zm9.636,11.089a3.728,3.728,0,0,1-3.735,3.032,3.732,3.732,0,0,1-3.772-3.035l-1.363.409a5.264,5.264,0,0,0,5.479,4.089,5.138,5.138,0,0,0,4.727-4.1Zm-6.4-2.048c0,.546-.022,1.036,0,1.524a2.631,2.631,0,0,0,1.763,2.288,2.7,2.7,0,0,0,2.891-.762c.787-.891.665-1.952.644-3.054A6.52,6.52,0,0,1-132.423,1250.259Z" transform="translate(140.067 -1233.481)"/><path class="a" d="M-40.776,1377.678a2.23,2.23,0,0,1-1.6-.717c-.307-.324-.341-.645-.086-.892.239-.232.559-.2.868.081a1.028,1.028,0,0,0,1.389.209,2.959,2.959,0,0,0,.283-.248.576.576,0,0,1,.839-.028.576.576,0,0,1-.057.839A2.258,2.258,0,0,1-40.776,1377.678Z" transform="translate(51.067 -1363.579)"/><path class="a" d="M2.272,1339.362c0-.1-.006-.2,0-.3a.528.528,0,0,1,.509-.551.526.526,0,0,1,.6.5,3.025,3.025,0,0,1,0,.752.531.531,0,0,1-.6.5.532.532,0,0,1-.508-.554C2.266,1339.589,2.272,1339.476,2.272,1339.362Z" transform="translate(10.057 -1329.41)"/><path class="a" d="M-56.625,1339.371a3.243,3.243,0,0,1,0,.377.52.52,0,0,1-.515.506.494.494,0,0,1-.572-.433,3.12,3.12,0,0,1-.016-.825.522.522,0,0,1,.606-.486.532.532,0,0,1,.5.559c.006.1,0,.2,0,.3Z" transform="translate(64.879 -1329.409)"/></g></svg>
