<svg id="Group_74" data-name="Group 74" xmlns="http://www.w3.org/2000/svg" width="27.652" height="34.828" viewBox="0 0 27.652 34.828">
  <path id="Path_24" data-name="Path 24" d="M240.28,789.036h-1.14v-5.772H226.36v5.753h-1.17v-.384q0-2.848,0-5.7c0-.709.137-.85.838-.855h.32c0-.629.015-1.23-.01-1.83a1.143,1.143,0,0,0-.215-.45q-3.061-5.3-6.126-10.6a2.33,2.33,0,1,1,3.908-2.536c.367.582.693,1.189,1.04,1.784.058.1.122.2.245.391v-.488c0-2.914.036-5.829-.016-8.742a2.359,2.359,0,0,1,3.338-2.269.591.591,0,0,0,.119.032,9.577,9.577,0,0,1,.131-1.445,2.306,2.306,0,0,1,2.569-1.7,2.332,2.332,0,0,1,1.983,2.289c0,.285,0,.571,0,.866,2.059-.676,3.369.2,3.5,2.269a7.658,7.658,0,0,1,1.182-.2,2.27,2.27,0,0,1,2.286,2.237c.009.59,0,1.18,0,1.792h-1.158c0-.54,0-1.091,0-1.641a1.148,1.148,0,0,0-.672-1.112,1.133,1.133,0,0,0-1.633.971c-.041,1.424-.011,2.85-.011,4.319.136-.061.245-.106.349-.157,1.1-.549,2.208-1.092,3.3-1.653a.825.825,0,0,1,.82,0q2.763,1.4,5.537,2.772a.7.7,0,0,1,.438.714c-.012,1.161.018,2.322-.006,3.482a7.42,7.42,0,0,1-3.47,6.335c-.822.55-1.693,1.027-2.539,1.542a.642.642,0,0,1-.717.019c-.939-.571-1.914-1.092-2.808-1.726a7.357,7.357,0,0,1-3.233-6.168c-.021-1.161.007-2.322-.006-3.482a.631.631,0,0,1,.44-.705c.63-.184.757-.585.743-1.21-.045-2.067-.018-4.135-.016-6.2a1.219,1.219,0,0,0-.439-1.027,1.062,1.062,0,0,0-1.186-.157,1.171,1.171,0,0,0-.7,1.134c0,1.62,0,3.241,0,4.861q0,1.524,0,3.047c0,.46-.212.711-.587.707s-.571-.251-.571-.722q0-5.242,0-10.484c0-.109,0-.218,0-.327a1.163,1.163,0,1,0-2.322.007c-.006,2.2,0,4.4,0,6.6q0,2.1,0,4.208c0,.465-.2.715-.578.715s-.579-.249-.579-.714q0-3.918,0-7.836a1.21,1.21,0,0,0-.764-1.236,1.162,1.162,0,0,0-1.553,1.157c-.012,1.717-.006,3.434-.006,5.151q0,2.775,0,5.55c0,.07.007.141.012.251.337,0,.659,0,.982,0a5.206,5.206,0,0,1,5.391,5.356c0,.325,0,.651,0,1H231.6c-.027-.554-.015-1.11-.088-1.655a4.034,4.034,0,0,0-4.032-3.539c-.52-.005-1.041-.017-1.56,0a.76.76,0,0,1-.756-.443c-.715-1.26-1.446-2.511-2.169-3.767a1.162,1.162,0,0,0-1.006-.666,1.135,1.135,0,0,0-1.049,1.713c.406.741.842,1.466,1.265,2.2,1.685,2.917,3.376,5.832,5.046,8.758a2.2,2.2,0,0,1,.245.916c.038.563.011,1.13.011,1.716h10.414c.187-1.007-.229-2.089.316-3.1l.983.385c-.036.481-.082.917-.1,1.354s0,.891,0,1.382c.213,0,.4-.008.59,0a.538.538,0,0,1,.565.54C240.283,784.75,240.28,786.876,240.28,789.036Zm-4.643-19.207h0c0,.459-.012.919,0,1.378a5.969,5.969,0,0,0,2.022,4.567,28.076,28.076,0,0,0,3.1,2.059.354.354,0,0,0,.293-.04c.758-.45,1.535-.873,2.257-1.376a5.991,5.991,0,0,0,2.7-4.548c.106-1.237.065-2.487.068-3.731a.483.483,0,0,0-.251-.327q-2.357-1.2-4.729-2.362a.588.588,0,0,0-.454,0c-1.594.78-3.177,1.581-4.769,2.364a.388.388,0,0,0-.241.422C235.644,768.765,235.637,769.3,235.637,769.828Z" transform="translate(-219.604 -754.207)" fill="#8CC540"/>
  <path id="Path_25" data-name="Path 25" d="M412.984,914.546l2.489-2.5.837.809-2.081,2.079c-.265.264-.523.535-.8.791a.552.552,0,0,1-.812.05c-.6-.573-1.181-1.167-1.769-1.753l.816-.827Z" transform="translate(-392.319 -896.746)" fill="#8CC540"/>
</svg>
