<svg xmlns="http://www.w3.org/2000/svg" width="59.546" height="75" viewBox="0 0 59.546 75"><defs><style>.a{fill:#252425;}</style></defs><path class="a" d="M264.126,829.207h-2.456v-12.43H234.152v12.388h-2.52v-.828q0-6.132,0-12.264c0-1.527.3-1.829,1.8-1.841.2,0,.406,0,.689,0,0-1.354.032-2.649-.022-3.94a2.461,2.461,0,0,0-.462-.97q-6.593-11.416-13.191-22.828a5.016,5.016,0,1,1,8.415-5.461c.791,1.252,1.493,2.56,2.239,3.841.125.215.263.421.528.842v-1.05c0-6.276.078-12.553-.034-18.826a5.079,5.079,0,0,1,7.187-4.886,1.272,1.272,0,0,0,.257.068,20.625,20.625,0,0,1,.282-3.111,4.965,4.965,0,0,1,5.533-3.655,5.021,5.021,0,0,1,4.27,4.928c.006.615,0,1.229,0,1.865,4.433-1.455,7.255.428,7.528,4.887a16.485,16.485,0,0,1,2.546-.431,4.888,4.888,0,0,1,4.922,4.817c.02,1.27,0,2.542,0,3.858h-2.493c0-1.164.01-2.349,0-3.534a2.472,2.472,0,0,0-1.446-2.394,2.439,2.439,0,0,0-3.516,2.09c-.089,3.066-.025,6.137-.025,9.3.294-.132.527-.228.751-.339,2.374-1.182,4.754-2.351,7.114-3.56a1.776,1.776,0,0,1,1.767.006q5.95,3.007,11.923,5.969a1.516,1.516,0,0,1,.942,1.536c-.026,2.5.039,5-.013,7.5a15.979,15.979,0,0,1-7.473,13.641c-1.771,1.184-3.645,2.212-5.467,3.32a1.383,1.383,0,0,1-1.543.04c-2.023-1.229-4.122-2.351-6.048-3.717a15.842,15.842,0,0,1-6.962-13.283c-.045-2.5.014-5-.014-7.5a1.358,1.358,0,0,1,.947-1.518c1.357-.4,1.63-1.26,1.6-2.6-.1-4.451-.039-8.905-.034-13.358a2.625,2.625,0,0,0-.945-2.211,2.288,2.288,0,0,0-2.555-.337,2.521,2.521,0,0,0-1.5,2.443c-.01,3.489,0,6.978,0,10.468q0,3.282,0,6.562c0,.991-.457,1.532-1.264,1.521s-1.229-.541-1.229-1.556q0-11.288,0-22.577c0-.234,0-.469,0-.7a2.505,2.505,0,1,0-5,.015c-.013,4.739-.005,9.478-.005,14.218q0,4.531,0,9.062c0,1-.441,1.539-1.245,1.541s-1.247-.536-1.248-1.536q0-8.437,0-16.874a2.606,2.606,0,0,0-1.646-2.663,2.5,2.5,0,0,0-3.345,2.491c-.026,3.7-.013,7.4-.014,11.093q0,5.976,0,11.952c0,.152.014.3.026.541.726,0,1.42.005,2.115,0a11.211,11.211,0,0,1,11.61,11.533c0,.7,0,1.4,0,2.158h-2.434c-.059-1.193-.033-2.391-.191-3.565a8.688,8.688,0,0,0-8.684-7.622c-1.12-.011-2.241-.037-3.359.005a1.636,1.636,0,0,1-1.627-.954c-1.541-2.713-3.114-5.408-4.672-8.111a2.5,2.5,0,0,0-2.166-1.435,2.445,2.445,0,0,0-2.259,3.689c.873,1.6,1.813,3.157,2.723,4.733,3.629,6.282,7.269,12.558,10.866,18.859a4.729,4.729,0,0,1,.527,1.973c.083,1.212.024,2.434.024,3.7h22.425c.4-2.167-.493-4.5.68-6.677l2.117.829c-.078,1.036-.177,1.975-.212,2.917-.035.958-.008,1.918-.008,2.976.458,0,.866-.016,1.272,0a1.159,1.159,0,0,1,1.216,1.163C264.135,819.979,264.126,824.556,264.126,829.207Zm-10-41.361h0c0,.989-.025,1.979,0,2.968a12.854,12.854,0,0,0,4.354,9.834,60.445,60.445,0,0,0,6.669,4.433.763.763,0,0,0,.631-.086c1.632-.969,3.306-1.881,4.861-2.962a12.9,12.9,0,0,0,5.814-9.793c.228-2.663.14-5.355.146-8.034a1.04,1.04,0,0,0-.54-.7q-5.075-2.577-10.184-5.085a1.267,1.267,0,0,0-.979-.006c-3.432,1.68-6.841,3.4-10.27,5.091a.836.836,0,0,0-.519.909C254.145,785.555,254.129,786.7,254.129,787.846Z" transform="translate(-219.604 -754.207)"/><path class="a" d="M415.441,917.434l5.361-5.392,1.8,1.742-4.481,4.476c-.57.569-1.127,1.152-1.714,1.7a1.189,1.189,0,0,1-1.748.107c-1.294-1.234-2.544-2.514-3.81-3.775l1.756-1.781Z" transform="translate(-370.941 -879.103)"/></svg>